<?xml version="1.0" encoding="UTF-8" standalone="no"?>
<svg
   xmlns="http://www.w3.org/2000/svg"
   width="64"
   height="64"
   viewBox="0 0 64 64"
   version="1.1">
  <defs>
    <style type="text/css">
      .disk { fill:#4a90e2; stroke:#2c5aa0; stroke-width:1.2; }
      .roller { fill:#e8e8e8; stroke:#666666; stroke-width:0.8; }
      .ring { fill:none; stroke:#2c5aa0; stroke-width:2.5; }
      .hole { fill:#ffffff; stroke:#2c5aa0; stroke-width:0.6; }
      .pin-hole { fill:#ffffff; stroke:#888888; stroke-width:0.5; }
    </style>
  </defs>

  <g transform="translate(32,32)">
    <!-- Outer ring housing -->
    <circle cx="0" cy="0" r="24" class="ring" />

    <!-- Cycloidal disk - epitrochoid profile (8 lobes, 9 rollers) -->
    <path class="disk" d="M 18.0,0.0 L 17.81,0.02 L 17.25,0.19 L 16.42,0.6 L 15.44,1.34
      L 14.45,2.41 L 13.6,3.77 L 12.98,5.32 L 12.66,6.92 L 12.64,8.44
      L 12.86,9.73 L 13.21,10.7 L 13.56,11.31 L 13.77,11.56 L 13.72,11.52
      L 13.31,11.31 L 12.53,11.08 L 11.41,10.95 L 10.02,11.04 L 8.51,11.43
      L 7.0,12.12 L 5.65,13.08 L 4.55,14.2 L 3.78,15.35 L 3.33,16.39
      L 3.14,17.19 L 3.12,17.64 L 3.12,17.71 L 3.01,17.4 L 2.66,16.79
      L 2.0,16.0 L 0.99,15.16 L -0.33,14.43 L -1.88,13.9 L -3.54,13.66
      L -5.14,13.72 L -6.56,14.04 L -7.69,14.52 L -8.46,15.03 L -8.88,15.43
      L -9.0,15.59 L -8.92,15.41 L -8.79,14.85 L -8.73,13.92 L -8.88,12.7
      L -9.31,11.31 L -10.06,9.89 L -11.1,8.58 L -12.33,7.5 L -13.63,6.73
      L -14.86,6.27 L -15.87,6.09 L -16.57,6.09 L -16.89,6.15 L -16.83,6.12
      L -16.45,5.87 L -15.86,5.32 L -15.18,4.41 L -14.57,3.16 L -14.15,1.65
      L -14.0,0.0 L -14.15,-1.65 L -14.57,-3.16 L -15.18,-4.41 L -15.86,-5.32
      L -16.45,-5.87 L -16.83,-6.12 L -16.89,-6.15 L -16.57,-6.09 L -15.87,-6.09
      L -14.86,-6.27 L -13.63,-6.73 L -12.33,-7.5 L -11.1,-8.58 L -10.06,-9.89
      L -9.31,-11.31 L -8.88,-12.7 L -8.73,-13.92 L -8.79,-14.85 L -8.92,-15.41
      L -9.0,-15.59 L -8.88,-15.43 L -8.46,-15.03 L -7.69,-14.52 L -6.56,-14.04
      L -5.14,-13.72 L -3.54,-13.66 L -1.88,-13.9 L -0.33,-14.43 L 0.99,-15.16
      L 2.0,-16.0 L 2.66,-16.79 L 3.01,-17.4 L 3.12,-17.71 L 3.12,-17.64
      L 3.14,-17.19 L 3.33,-16.39 L 3.78,-15.35 L 4.55,-14.2 L 5.65,-13.08
      L 7.0,-12.12 L 8.51,-11.43 L 10.02,-11.04 L 11.41,-10.95 L 12.53,-11.08
      L 13.31,-11.31 L 13.72,-11.52 L 13.77,-11.56 L 13.56,-11.31 L 13.21,-10.7
      L 12.86,-9.73 L 12.64,-8.44 L 12.66,-6.92 L 12.98,-5.32 L 13.6,-3.77
      L 14.45,-2.41 L 15.44,-1.34 L 16.42,-0.6 L 17.25,-0.19 L 17.81,-0.02 Z" />

    <!-- Ring rollers (9 evenly spaced) -->
    <circle cx="18.0" cy="0.0" r="2.2" class="roller" />
    <circle cx="13.79" cy="11.57" r="2.2" class="roller" />
    <circle cx="3.13" cy="17.73" r="2.2" class="roller" />
    <circle cx="-9.0" cy="15.59" r="2.2" class="roller" />
    <circle cx="-16.91" cy="6.16" r="2.2" class="roller" />
    <circle cx="-16.91" cy="-6.16" r="2.2" class="roller" />
    <circle cx="-9.0" cy="-15.59" r="2.2" class="roller" />
    <circle cx="3.13" cy="-17.73" r="2.2" class="roller" />
    <circle cx="13.79" cy="-11.57" r="2.2" class="roller" />

    <!-- Driver pin holes -->
    <circle cx="9.0" cy="0.0" r="1.8" class="pin-hole" />
    <circle cx="0.0" cy="9.0" r="1.8" class="pin-hole" />
    <circle cx="-9.0" cy="0.0" r="1.8" class="pin-hole" />
    <circle cx="0.0" cy="-9.0" r="1.8" class="pin-hole" />

    <!-- Eccentric center hole -->
    <circle cx="1.5" cy="0" r="3.5" class="hole" />
  </g>
</svg>
